# xmcd
#
# Track frame offsets: 
#        150
#        12686
#        26275
#        38295
#        46374
#        71305
#        84891
#        92089
#        106123
#        112106
#        120522
#        133408
#        141355
#        152568
#        161227
#
# Disc length: 2419 seconds
#
# Revision: 1
# Processed by: cddbd v1.4PL0 Copyright (c) Steve Scherf et al.
# Submitted via: ExactAudioCopy v0.90b4
#
DISCID=bd09710f
DTITLE=Blind Willie McTell - Crapshooter's Blues
DYEAR=1940
DGENRE=Blues
TTITLE0=Chainey
TTITLE1=Murderer's Home Blues
TTITLE2=Kill-It-Kid Rag
TTITLE3=I Got to Cross de River o'Jordan (I)
TTITLE4=Interview with John Lomax (I)
TTITLE5=Old Time Religion, Amen
TTITLE6=Will Fox
TTITLE7=Dying Crapshooter's Blues
TTITLE8=Amazing Grace
TTITLE9=Interview with John Lomax (II)
TTITLE10=Just as Well Get Ready/Climbing High Mountains
TTITLE11=King Edward Blues
TTITLE12=Delia
TTITLE13=Boll Weevil
TTITLE14=I Got to Cross de River o'Jordan (II)
EXTD=
EXTT0=
EXTT1=
EXTT2=
EXTT3=
EXTT4=
EXTT5=
EXTT6=
EXTT7=
EXTT8=
EXTT9=
EXTT10=
EXTT11=
EXTT12=
EXTT13=
EXTT14=
PLAYORDER=
